<?xml version="1.0" encoding="utf-8"?>

<!DOCTYPE svg PUBLIC "-//W3C//DTD SVG 1.1//EN" "http://www.w3.org/Graphics/SVG/1.1/DTD/svg11.dtd">
<!-- Uploaded to: SVG Repo, www.svgrepo.com, Generator: SVG Repo Mixer Tools -->
<svg height="800px" width="800px" version="1.1" id="_x32_" xmlns="http://www.w3.org/2000/svg" xmlns:xlink="http://www.w3.org/1999/xlink" 
	 viewBox="0 0 512 512"  xml:space="preserve">
<style type="text/css">
	.st0{fill:#000000;}
</style>
<g>
	<path class="st0" d="M494.68,108.323c-0.038-38.295-21.765-84.074-70.264-100.133C413.742,4.67,397.173,0,376.444,0
		c-18.545,0-36.921,3.756-54.599,11.137c-52.529,21.942-79.282,72.908-108.088,163.393h-73.352
		c-22.028,0-39.858,17.848-39.858,39.866v44.8c0,22.018,17.829,39.857,39.858,39.857h37.278l-0.528,2.072
		c-2.692,10.392-4.8,18.62-8.002,29.079c-1.355,4.509-2.956,9.028-4.725,13.49c-15.175-18.282-38.031-29.869-62.77-29.869
		c-9.112,0-18.338,1.534-27.356,4.528c-37.429,12.482-58.685,47.878-56.878,94.701c0.546,14.554,6.608,29.069,10.618,36.299
		C47.7,486.856,91.926,512,138.411,512c33.23,0,65.782-12.492,94.154-36.13c48.217-40.206,71.639-101.263,93.215-176.817h72.222
		c22.027,0,39.857-17.839,39.857-39.857v-44.8c0-10.016-3.671-19.157-9.772-26.161C465.912,181.326,494.68,148.114,494.68,108.323zz"/>
</g>
</svg>