<?xml version="1.0" standalone="no"?>
<!DOCTYPE svg PUBLIC "-//W3C//DTD SVG 20010904//EN"
 "http://www.w3.org/TR/2001/REC-SVG-20010904/DTD/svg10.dtd">
<svg version="1.0" xmlns="http://www.w3.org/2000/svg"
 width="1600.000000pt" height="969.000000pt" viewBox="0 0 1600.000000 969.000000"
 preserveAspectRatio="xMidYMid meet">

<g transform="translate(0.000000,969.000000) scale(0.100000,-0.100000)"
fill="#000000" stroke="none">
<path d="M8093 9493 c-24 -8 -43 -18 -43 -23 0 -4 25 -77 56 -161 31 -85 62
-172 70 -194 7 -22 33 -94 59 -160 84 -217 107 -285 103 -303 -3 -9 -43 -76
-90 -147 l-85 -130 -66 -26 -65 -26 -183 26 -184 26 -6 40 c-8 46 -72 211
-204 525 -31 74 -68 168 -82 208 -14 39 -31 72 -37 72 -34 0 -117 -53 -164
-105 -139 -152 -238 -356 -289 -595 -27 -127 -24 -453 5 -565 11 -44 19 -81
18 -83 -2 -1 -50 -20 -107 -41 -68 -26 -119 -52 -147 -77 l-44 -37 86 -86 85
-86 -64 -95 -64 -95 16 -50 c15 -47 20 -53 86 -88 l70 -38 39 26 c108 71 166
89 198 60 11 -10 41 -54 66 -99 26 -45 64 -110 84 -146 134 -232 194 -376 302
-720 28 -92 29 -101 28 -285 0 -104 -2 -237 -5 -295 -2 -58 -6 -197 -10 -310
-5 -209 -12 -408 -20 -605 -2 -60 -7 -200 -11 -310 -3 -110 -7 -218 -9 -240
-2 -22 -4 -59 -4 -82 -1 -28 -6 -43 -13 -43 -24 0 -176 110 -223 163 -26 28
-62 68 -80 87 -58 63 -137 171 -155 214 -10 22 -57 183 -104 356 -169 623
-246 907 -285 1050 -22 80 -83 307 -136 505 -112 420 -116 432 -163 550 -96
239 -250 441 -432 565 -109 74 -279 137 -501 185 -214 46 -351 64 -684 90 -38
3 -297 6 -575 6 -278 -1 -1321 -1 -2318 -1 l-1814 0 54 -62 c88 -104 417 -430
508 -505 284 -233 496 -362 740 -451 246 -91 315 -95 1640 -107 311 -3 608 -7
660 -10 52 -2 160 -7 240 -10 459 -18 927 -73 1195 -141 156 -39 395 -130 395
-150 0 -10 -491 3 -575 15 -38 5 -160 12 -270 15 -110 3 -216 7 -235 10 -50 7
-285 24 -425 31 -66 3 -156 8 -200 10 -104 6 -567 14 -1185 20 -272 3 -548 8
-614 11 -136 7 -133 16 -42 -96 199 -245 493 -500 744 -645 229 -131 546 -239
792 -269 106 -13 147 -16 380 -26 536 -23 1029 -51 1140 -65 19 -2 80 -9 135
-15 394 -44 747 -133 1006 -253 84 -39 97 -48 102 -73 3 -16 4 -31 1 -33 -8
-8 -598 62 -750 89 -251 45 -533 78 -824 95 -52 3 -120 8 -150 10 -30 2 -118
7 -195 10 -77 3 -176 8 -220 10 -44 2 -140 7 -214 11 l-133 6 7 -23 c29 -91
179 -291 321 -430 238 -230 498 -385 859 -509 309 -106 557 -155 969 -190 357
-30 520 -69 672 -161 45 -27 88 -56 95 -65 13 -16 8 -17 -61 -11 -41 4 -177
10 -301 13 -251 8 -249 8 -231 -55 6 -20 25 -92 42 -161 41 -168 90 -300 165
-451 102 -204 160 -286 308 -438 179 -183 361 -294 637 -391 49 -17 118 -50
162 -77 21 -13 47 -23 59 -23 21 0 21 -2 15 -112 -3 -62 -8 -259 -11 -438 -3
-179 -10 -435 -17 -569 -20 -452 8 -632 122 -771 103 -126 213 -204 335 -236
147 -40 413 11 537 101 94 69 198 234 223 354 17 81 22 353 12 631 -4 102 -9
309 -12 460 -3 151 -8 330 -11 398 -6 120 -6 122 15 122 12 0 38 10 59 23 44
27 113 60 162 77 276 97 458 208 637 391 148 152 206 234 308 438 75 151 124
283 165 451 17 69 36 141 42 161 18 63 20 63 -231 55 -124 -3 -260 -9 -301
-13 -69 -6 -74 -5 -61 11 7 9 50 38 95 65 152 92 315 131 672 161 412 35 660
84 969 190 361 124 621 279 859 509 142 139 292 339 321 430 l7 23 -133 -6
c-74 -4 -170 -9 -214 -11 -44 -2 -143 -7 -220 -10 -77 -3 -165 -8 -195 -10
-30 -2 -98 -7 -150 -10 -291 -17 -573 -50 -824 -95 -152 -27 -742 -97 -750
-89 -3 2 -2 17 1 33 5 25 18 34 102 73 259 120 612 209 1006 253 55 6 116 13
135 15 111 14 604 42 1140 65 233 10 274 13 380 26 246 30 563 138 792 269
251 145 545 400 744 645 91 112 94 103 -42 96 -66 -3 -342 -8 -614 -11 -618
-6 -1081 -14 -1185 -20 -44 -2 -134 -7 -200 -10 -140 -7 -375 -24 -425 -31
-19 -3 -125 -7 -235 -10 -110 -3 -231 -10 -270 -15 -84 -12 -575 -25 -575 -15
0 20 239 111 395 150 268 68 736 123 1195 141 80 3 188 8 240 10 52 3 349 7
660 10 1115 10 1323 18 1473 55 386 96 754 334 1177 759 187 188 287 298 278
306 -6 6 -4627 6 -4703 0 -334 -28 -461 -45 -674 -90 -222 -48 -392 -111 -501
-185 -182 -124 -336 -326 -432 -565 -47 -118 -51 -130 -163 -550 -53 -198
-114 -425 -136 -505 -39 -143 -116 -427 -285 -1050 -47 -173 -94 -334 -104
-356 -18 -43 -97 -151 -155 -214 -18 -19 -54 -59 -81 -88 -52 -58 -193 -158
-204 -145 -4 4 -10 181 -14 393 -3 212 -8 471 -11 575 -23 908 -22 958 10
1225 23 192 74 412 122 525 43 103 160 316 227 413 64 93 157 254 221 382 118
235 147 338 164 591 9 120 8 157 -4 215 -9 38 -20 89 -25 114 -21 102 -121
354 -162 406 -45 58 -271 281 -313 308 -227 150 -360 218 -478 245 -123 28
-157 31 -204 14z"/>
</g>
</svg>
